<?xml version="1.0" encoding="utf-8"?>
<svg viewBox="51.3118 8.2974 365.0658 480.8031" width="365.0658" height="480.8031" xmlns="http://www.w3.org/2000/svg">
  <g style="" transform="matrix(1.3279950618743896, 0, 0, 1.3279950618743896, -56.91978454589844, -73.24150848388672)">
    <rect x="86.515" y="66.362" width="264.916" height="264.916" style="paint-order: fill; stroke: rgb(0, 0, 0); stroke-linecap: round; stroke-linejoin: round; stroke-dasharray: 4; fill: rgb(255, 255, 255);"/>
    <rect x="81.5" y="61.4" width="10" height="10" style="fill: rgb(46, 102, 249); stroke-width: 3px; stroke: rgb(255, 255, 255);"/>
    <rect x="346.4" y="326.3" width="10" height="10" style="fill: rgb(46, 102, 249); stroke-width: 3px; stroke: rgb(255, 255, 255);"/>
    <rect x="346.4" y="61.4" width="10" height="10" style="fill: rgb(46, 102, 249); stroke-width: 3px; stroke: rgb(255, 255, 255);"/>
    <rect x="81.5" y="326.3" width="10" height="10" style="fill: rgb(46, 102, 249); stroke-width: 3px; stroke: rgb(255, 255, 255);"/>
  </g>
  <path d="M 173.676 300.858 C 173.676 300.858 176.419 307.28 184.799 311.636 C 169.782 310.079 169.782 310.079 139.673 287.699 C 139.673 287.699 138.031 305.879 112.33 335.196 C 125.822 291.002 124.335 284.816 114.078 263.324 C 110.441 256.126 105.721 271.588 106.399 278.645 C 80.756 194.062 170.233 162.242 170.233 162.242 L 151.864 149.176 C 173.722 156.321 334.427 136.83 227.576 100.877 C 227.576 100.877 236.345 109.803 235.224 115.498 C 233.304 110.703 227.111 109.04 227.111 109.04 C 227.111 109.04 231.437 123.49 228.302 130.522 C 227.221 122.176 213.687 108.987 213.687 108.987 C 213.687 108.987 218.166 131.3 178.514 130.118 C 157.893 129.226 148.696 132.872 141.679 139.831 C 136.143 145.319 134.796 146.24 132.285 146.24 C 129.388 146.24 126.238 144.408 122.407 140.504 C 120.904 138.971 120.538 137.623 120.559 133.708 C 120.581 129.495 121.02 128.181 123.745 124.162 C 126.709 119.792 127.353 119.337 134.126 116.864 C 138.097 115.414 143.464 113.269 146.051 112.094 C 150.211 110.206 150.85 109.577 151.573 106.648 C 152.445 103.118 152.969 102.743 163.286 98.288 C 167.031 96.669 170.1 94.254 175.928 88.338 C 182.891 81.267 182.688 79.313 182.871 78.386 C 183.752 66.534 159.612 78.353 159.612 78.353 C 159.612 78.353 164.737 70.902 169.328 67.682 C 181.809 58.933 198.266 67.052 198.266 67.052 C 198.266 67.052 226.598 34.879 267.014 21.365 C 265.065 22.678 238.159 49.566 238.598 52.591 C 244.155 52.711 247.116 55.726 247.116 55.726 C 235.49 55.285 228.548 66.336 228.548 66.336 C 233.934 63.243 264.925 58.464 264.925 58.464 C 264.925 58.464 260.666 61.24 260.807 62.513 C 291.987 53.539 357.135 55.329 357.135 55.329 C 334.011 58.517 289.216 75.3 289.216 75.3 C 289.216 75.3 322.261 72.893 341.281 79.554 C 322.675 78.561 310.042 82.689 303.692 86.134 C 327.929 99.021 344.672 139.864 344.672 139.864 C 344.672 139.864 307.955 99.967 294.052 104.116 C 294.052 104.116 344.932 180.583 300.111 211.095 C 302.215 200.904 307.441 163.03 292.179 154.733 C 292.179 154.733 234.063 204.913 198.266 204.072 C 207.383 200.904 210.531 195.175 210.531 195.175 C 174.482 187.633 163.284 229.521 170.485 245.707 C 160.104 241.963 145.128 223.548 145.128 223.548 C 145.128 223.548 147.499 264.615 197.417 258.819 C 189.858 263.337 178.904 267.95 166.81 267.209 C 169.472 275.036 221.43 266.213 224.645 259.995 C 226.202 256.987 233.61 242.163 215.185 236.174 C 226.235 230.298 243.621 252.453 243.621 252.453 C 243.621 252.453 246.856 250.256 262.282 247.562 C 277.71 244.866 251.363 239.702 251.363 239.702 C 274.341 239.46 285.172 243.538 285.172 243.538 C 288.962 233.771 242.314 209.375 242.314 209.375 C 242.314 209.375 448.298 272.038 334.407 354.803 C 345.484 326.703 345.527 319.83 340.607 305.221 C 338.829 299.951 336.709 295.883 335.163 294.79 C 334.738 294.491 336.706 298.434 329.057 304.075 C 319.011 269.749 276.049 270.034 271.717 272.163 C 248.023 281.464 272.004 296.452 282.759 290.415 C 276.531 299.251 258.666 299.132 258.666 299.132 C 258.666 299.132 281.339 318.271 301.265 309.665 C 288.184 341.703 230.47 289.247 230.373 289.071 C 230.275 288.899 210.38 295.708 210.38 295.708 C 210.38 295.708 236.27 317.248 248.645 360.32 C 220.378 318.687 173.676 300.858 173.676 300.858 Z M 188.853 98.954 C 197.24 90.08 196.579 88.937 186.186 94.346 C 180.166 97.48 169.645 103.238 170.657 106.191 C 177.593 106.461 181.755 106.463 181.755 106.463 L 188.853 98.954 Z" style="" transform="matrix(1, 0, 0, 1, 0, -3.552713678800501e-15)"/>
  <g style="" transform="matrix(0.5009639859199524, 0, 0, 0.5009639859199524, 143.84347534179688, 290.5334167480469)">
    <polygon fill="#FFFFFF" points="299.686 116.37 321.686 124.37 465.686 268.37 471.686 290.37 407.686 290.37 407.686 310.37 417.686 316.37 433.686 348.37 433.686 380.37 401.686 380.37 369.686 316.37 353.686 316.37 321.686 348.37 300.686 353.37"/>
    <path d="M 465.686 268.37 L 481.686 268.37 L 481.686 300.37 L 417.686 300.37 L 417.686 316.37 L 401.686 316.37 L 401.686 284.37 L 465.686 284.37 L 465.686 268.37 Z M 465.686 268.37 L 465.686 252.37 L 449.686 252.37 L 449.686 268.37 L 465.686 268.37 Z M 449.686 252.37 L 449.686 236.37 L 433.686 236.37 L 433.686 252.37 L 449.686 252.37 Z M 433.686 236.37 L 433.686 220.37 L 417.686 220.37 L 417.686 236.37 L 433.686 236.37 Z M 417.686 220.37 L 417.686 204.37 L 401.686 204.37 L 401.686 220.37 L 417.686 220.37 Z M 401.686 204.37 L 401.686 188.37 L 385.686 188.37 L 385.686 204.37 L 401.686 204.37 Z M 385.686 188.37 L 385.686 172.37 L 369.686 172.37 L 369.686 188.37 L 385.686 188.37 Z M 369.686 172.37 L 369.686 156.37 L 353.686 156.37 L 353.686 172.37 L 369.686 172.37 Z M 353.686 156.37 L 353.686 140.37 L 337.686 140.37 L 337.686 156.37 L 353.686 156.37 Z M 337.686 140.37 L 337.686 124.37 L 321.686 124.37 L 321.686 140.37 L 337.686 140.37 Z M 305.686 124.37 L 321.686 124.37 L 321.686 108.37 L 305.686 108.37 L 305.686 92.37 L 289.686 92.37 L 289.686 364.37 L 321.686 364.37 L 321.686 348.37 L 305.686 348.37 L 305.686 124.37 Z M 353.686 300.37 L 353.686 316.37 L 369.686 316.37 L 369.686 300.37 L 353.686 300.37 Z M 337.686 332.37 L 353.686 332.37 L 353.686 316.37 L 337.686 316.37 L 337.686 332.37 Z M 321.686 348.37 L 337.686 348.37 L 337.686 332.37 L 321.686 332.37 L 321.686 348.37 Z M 369.686 316.37 L 369.686 348.37 L 385.686 348.37 L 385.686 316.37 L 369.686 316.37 Z M 385.686 348.37 L 385.686 380.37 L 401.686 380.37 L 401.686 348.37 L 385.686 348.37 Z M 449.686 380.37 L 449.686 348.37 L 433.686 348.37 L 433.686 380.37 L 449.686 380.37 Z M 433.686 348.37 L 433.686 316.37 L 417.686 316.37 L 417.686 348.37 L 433.686 348.37 Z M 401.686 396.37 L 433.686 396.37 L 433.686 380.37 L 401.686 380.37 L 401.686 396.37 Z"/>
  </g>
</svg>